<?xml version="1.0" encoding="UTF-8" standalone="no"?>
<!-- Created with Inkscape (http://www.inkscape.org/) -->

<svg
   xmlns:dc="http://purl.org/dc/elements/1.1/"
   xmlns:cc="http://creativecommons.org/ns#"
   xmlns:rdf="http://www.w3.org/1999/02/22-rdf-syntax-ns#"
   xmlns:svg="http://www.w3.org/2000/svg"
   xmlns="http://www.w3.org/2000/svg"
   xmlns:sodipodi="http://sodipodi.sourceforge.net/DTD/sodipodi-0.dtd"
   xmlns:inkscape="http://www.inkscape.org/namespaces/inkscape"
   width="301.10544mm"
   height="63.103451mm"
   viewBox="0 0 301.10544 63.103451"
   version="1.1"
   id="svg8"
   inkscape:version="0.92.4 (5da689c313, 2019-01-14)"
   sodipodi:docname="final_logo_text.svg">
  <defs
     id="defs2" />
  <sodipodi:namedview
     id="base"
     pagecolor="#ffffff"
     bordercolor="#666666"
     borderopacity="1.0"
     inkscape:pageopacity="0.0"
     inkscape:pageshadow="2"
     inkscape:zoom="0.35"
     inkscape:cx="-282.4104"
     inkscape:cy="104.96488"
     inkscape:document-units="mm"
     inkscape:current-layer="text839"
     showgrid="false"
     fit-margin-top="5"
     fit-margin-bottom="5"
     fit-margin-left="5"
     fit-margin-right="5"
     inkscape:window-width="1918"
     inkscape:window-height="1008"
     inkscape:window-x="953"
     inkscape:window-y="1080"
     inkscape:window-maximized="0" />
  <metadata
     id="metadata5">
    <rdf:RDF>
      <cc:Work
         rdf:about="">
        <dc:format>image/svg+xml</dc:format>
        <dc:type
           rdf:resource="http://purl.org/dc/dcmitype/StillImage" />
        <dc:title></dc:title>
      </cc:Work>
    </rdf:RDF>
  </metadata>
  <g
     inkscape:label="Layer 1"
     inkscape:groupmode="layer"
     id="layer1"
     transform="translate(77.225344,-113.50185)">
    <g
       aria-label="Connectify "
       transform="scale(1.0656691,0.93837758)"
       style="font-style:normal;font-variant:normal;font-weight:normal;font-stretch:normal;font-size:56.64735413px;line-height:1.25;font-family:Arial;-inkscape-font-specification:Arial;letter-spacing:0px;word-spacing:0px;fill:#000000;fill-opacity:1;stroke:none;stroke-width:1.41618371"
       id="text839">
      <path
         d="m -67.774644,150.24559 c 0,11.726 5.551441,19.71328 18.410391,19.71328 4.758377,0 8.836987,-1.1896 11.386118,-2.43584 0.566473,-0.28324 0.566473,-0.50983 0.566473,-1.0763 v -7.19421 c 0,-0.62312 -0.283236,-0.84971 -0.84971,-0.84971 h -3.228899 c -0.566474,0 -0.849711,0.22659 -0.793063,0.84971 l 0.226589,3.96531 c -1.472831,1.1896 -4.021962,1.81272 -7.080919,1.81272 -8.836987,0 -11.839297,-7.19422 -11.839297,-15.69132 0,-7.98728 2.605778,-14.50172 10.876292,-14.50172 2.945662,0 5.891325,0.963 7.987277,2.37919 l -0.169942,3.96531 c -0.05665,0.62312 0.226589,0.84971 0.793063,0.84971 h 3.172252 c 0.566473,0 0.84971,-0.28324 0.84971,-0.84971 v -7.30751 c 0,-0.56647 -0.226589,-0.84971 -0.736416,-1.13294 -3.398841,-1.86937 -7.590745,-2.88902 -11.839297,-2.88902 -8.043924,0 -17.730622,5.15491 -17.730622,20.39305 z"
         style="font-style:normal;font-variant:normal;font-weight:normal;font-stretch:normal;font-family:'Crete Round';-inkscape-font-specification:'Crete Round';fill:#000000;fill-opacity:1;stroke-width:1.41618371"
         id="path814" />
      <path
         d="m -32.601949,155.68373 c 0,9.63005 4.815025,14.27514 12.519065,14.27514 7.534099,0 13.6520128,-4.87168 13.6520128,-15.46473 0,-12.51907 -8.3271608,-13.8786 -12.7456548,-13.8786 -5.438146,0 -13.425423,3.1156 -13.425423,15.06819 z m 13.028892,9.63005 c -5.664736,0 -6.627741,-5.83467 -6.627741,-10.87629 0,-5.49479 1.812716,-9.17687 6.514446,-9.17687 4.871672,0 6.62774,3.68208 6.62774,10.02658 0,6.51445 -1.869362,10.02658 -6.514445,10.02658 z"
         style="font-style:normal;font-variant:normal;font-weight:normal;font-stretch:normal;font-family:'Crete Round';-inkscape-font-specification:'Crete Round';fill:#000000;fill-opacity:1;stroke-width:1.41618371"
         id="path816" />
      <path
         d="m -3.0745159,145.09068 c 0,0.62312 0.2265894,0.79306 0.8497103,0.79306 h 3.05895712 v 18.92022 H -2.1681582 c -0.5664736,0 -0.8497104,0.22659 -0.8497104,0.84971 v 2.77572 c 0,0.56647 0.2832368,0.84971 0.8497104,0.84971 H 10.690791 c 0.566474,0 0.84971,-0.22659 0.84971,-0.84971 v -2.77572 c 0,-0.56648 -0.226589,-0.84971 -0.84971,-0.84971 H 7.1786552 v -13.02889 c 0,-2.77572 2.7757203,-5.55144 6.3445038,-5.55144 4.475141,0 4.871672,2.83236 4.871672,6.85433 v 11.726 h -2.719073 c -0.566473,0 -0.84971,0.22659 -0.84971,0.84971 v 2.77572 c 0,0.56647 0.283237,0.84971 0.84971,0.84971 h 12.349124 c 0.566473,0 0.84971,-0.22659 0.84971,-0.84971 v -2.77572 c 0,-0.56648 -0.283237,-0.84971 -0.84971,-0.84971 h -3.285547 v -14.55837 c 0,-6.40115 -3.058957,-9.63005 -8.78034,-9.63005 -3.342194,0 -6.7410351,1.24624 -9.0635766,4.75838 l -0.5098262,-3.28555 c -0.1132947,-0.56648 -0.3398841,-0.84971 -0.9063576,-0.84971 h -7.7040402 c -0.6231209,0 -0.8497103,0.28323 -0.8497103,0.84971 z"
         style="font-style:normal;font-variant:normal;font-weight:normal;font-stretch:normal;font-family:'Crete Round';-inkscape-font-specification:'Crete Round';fill:#000000;fill-opacity:1;stroke-width:1.41618371"
         id="path818" />
      <path
         d="m 31.113053,145.09068 c 0,0.62312 0.226589,0.79306 0.84971,0.79306 h 3.058957 v 18.92022 h -3.00231 c -0.566473,0 -0.84971,0.22659 -0.84971,0.84971 v 2.77572 c 0,0.56647 0.283237,0.84971 0.84971,0.84971 h 12.85895 c 0.566473,0 0.84971,-0.22659 0.84971,-0.84971 v -2.77572 c 0,-0.56648 -0.226589,-0.84971 -0.84971,-0.84971 h -3.512136 v -13.02889 c 0,-2.77572 2.77572,-5.55144 6.344504,-5.55144 4.47514,0 4.871672,2.83236 4.871672,6.85433 v 11.726 h -2.719073 c -0.566474,0 -0.84971,0.22659 -0.84971,0.84971 v 2.77572 c 0,0.56647 0.283236,0.84971 0.84971,0.84971 H 62.21245 c 0.566474,0 0.84971,-0.22659 0.84971,-0.84971 v -2.77572 c 0,-0.56648 -0.283236,-0.84971 -0.84971,-0.84971 h -3.285546 v -14.55837 c 0,-6.40115 -3.058957,-9.63005 -8.78034,-9.63005 -3.342194,0 -6.741035,1.24624 -9.063577,4.75838 l -0.509826,-3.28555 c -0.113295,-0.56648 -0.339884,-0.84971 -0.906358,-0.84971 h -7.70404 c -0.623121,0 -0.84971,0.28323 -0.84971,0.84971 z"
         style="font-style:normal;font-variant:normal;font-weight:normal;font-stretch:normal;font-family:'Crete Round';-inkscape-font-specification:'Crete Round';fill:#000000;fill-opacity:1;stroke-width:1.41618371"
         id="path820" />
      <path
         d="m 78.895979,169.95887 c 3.908667,0 7.364156,-0.96301 9.346813,-2.03931 0.509826,-0.28323 0.736416,-0.56647 0.509826,-1.13295 l -1.076299,-2.60577 c -0.22659,-0.56648 -0.566474,-0.73642 -1.132947,-0.45318 -2.039305,0.90636 -3.85202,1.47283 -6.401151,1.47283 -6.117915,0 -7.647393,-3.73873 -7.987277,-8.55375 h 16.654322 c 0.84971,0 0.963005,-0.22659 1.019652,-0.90636 0.05665,-0.67977 0.05665,-1.41618 0.05665,-1.92601 0,-6.11791 -2.379188,-13.19883 -11.046234,-13.19883 -8.893634,0 -12.972244,7.13756 -12.972244,14.61501 0,8.6104 3.625431,14.72832 13.028892,14.72832 z m -6.741035,-17.50404 c 0.113294,-3.00231 1.302889,-7.08091 6.231209,-7.08091 4.645083,0 5.608088,3.68207 5.55144,7.08091 z"
         style="font-style:normal;font-variant:normal;font-weight:normal;font-stretch:normal;font-family:'Crete Round';-inkscape-font-specification:'Crete Round';fill:#000000;fill-opacity:1;stroke-width:1.41618371"
         id="path822" />
      <path
         d="m 99.984722,154.89067 c 0,-6.3445 1.982658,-9.51675 6.571088,-9.51675 3.45549,0 4.87168,1.98265 5.04162,4.98496 0.0566,0.73642 0.39653,0.84971 0.963,0.84971 h 3.39885 c 0.56647,0 0.963,-0.0566 0.963,-0.73641 0,-5.26821 -2.71907,-9.85664 -9.96993,-9.85664 -9.346817,0 -13.425427,6.62774 -13.425427,14.78496 0,8.55375 3.85202,14.55837 13.425427,14.55837 4.1919,0 7.13756,-1.13295 8.72369,-2.09596 0.50982,-0.28323 0.67977,-0.62312 0.45318,-1.18959 l -1.01965,-2.49248 c -0.22659,-0.56648 -0.62313,-0.73642 -1.1896,-0.50983 -1.75607,0.79306 -3.45549,1.52948 -5.94797,1.52948 -6.06127,0 -7.987278,-4.47514 -7.987278,-10.30982 z"
         style="font-style:normal;font-variant:normal;font-weight:normal;font-stretch:normal;font-family:'Crete Round';-inkscape-font-specification:'Crete Round';fill:#000000;fill-opacity:1;stroke-width:1.41618371"
         id="path824" />
      <path
         d="m 129.37054,145.88374 h 5.72138 c 0.56648,0 0.84971,-0.22659 0.84971,-0.84971 v -2.94566 c 0,-0.56648 -0.28323,-0.84971 -0.84971,-0.84971 h -5.72138 v -7.64739 c 0,-0.56648 -0.28324,-0.84971 -0.84971,-0.84971 h -4.64508 c -0.62312,0 -0.84971,0.28323 -0.84971,0.84971 v 7.64739 h -3.2289 c -0.56648,0 -0.84971,0.22659 -0.84971,0.84971 v 2.94566 c 0,0.56647 0.28323,0.84971 0.84971,0.84971 h 3.2289 v 13.65201 c 0,4.92832 0,10.42312 8.15722,10.42312 2.1526,0 4.87167,-0.56648 6.45779,-1.35954 0.50983,-0.28324 0.73642,-0.56647 0.50983,-1.13295 l -1.01965,-2.60578 c -0.22659,-0.56647 -0.45318,-0.62312 -0.90636,-0.45317 -1.01965,0.45317 -1.98266,0.79306 -3.45549,0.79306 -2.94566,0 -3.39884,-1.86936 -3.39884,-5.04162 z"
         style="font-style:normal;font-variant:normal;font-weight:normal;font-stretch:normal;font-family:'Crete Round';-inkscape-font-specification:'Crete Round';fill:#000000;fill-opacity:1;stroke-width:1.41618371"
         id="path826" />
      <path
         d="m 150.67792,164.80396 h 3.56878 c 0.56647,0 0.84971,0.22659 0.84971,0.84971 v 2.77572 c 0,0.56647 -0.28324,0.84971 -0.84971,0.84971 h -13.48207 c -0.56648,0 -0.84971,-0.22659 -0.84971,-0.84971 v -2.77572 c 0,-0.56648 0.28323,-0.84971 0.84971,-0.84971 h 3.56878 v -18.92022 h -3.05896 c -0.56647,0 -0.84971,-0.22659 -0.84971,-0.84971 v -2.94566 c 0,-0.56648 0.28324,-0.84971 0.84971,-0.84971 h 8.55375 c 0.62313,0 0.84972,0.28323 0.84972,0.84971 z m -7.93063,-31.49593 c 0,2.26589 1.47283,4.02196 4.02196,4.02196 2.49248,0 4.07861,-1.75607 4.07861,-4.02196 0,-2.32254 -1.52948,-4.07861 -4.07861,-4.07861 -2.49249,0 -4.02196,1.75607 -4.02196,4.07861 z"
         style="font-style:normal;font-variant:normal;font-weight:normal;font-stretch:normal;font-family:'Crete Round';-inkscape-font-specification:'Crete Round';fill:#000000;fill-opacity:1;stroke-width:1.41618371"
         id="path828" />
      <path
         d="m 167.5544,145.82709 h 6.85433 c 0.56647,0 0.84971,-0.22659 0.84971,-0.84971 v -2.88901 c 0,-0.56648 -0.28324,-0.84971 -0.84971,-0.84971 h -6.85433 v -4.13526 c 0,-4.07861 0.22659,-6.11791 3.56878,-6.11791 1.81272,0 3.51214,0.79306 4.02197,1.01965 0.50982,0.22659 0.79306,0.0566 0.963,-0.39653 l 0.84971,-2.83237 c 0.16994,-0.56647 0.0566,-0.84971 -0.45318,-1.0763 -1.01965,-0.45318 -3.68208,-1.41618 -6.62774,-1.41618 -7.36415,0 -8.66704,4.81502 -8.66704,9.4601 v 5.4948 h -3.51214 c -0.56647,0 -0.84971,0.22659 -0.84971,0.84971 v 2.88901 c 0,0.56648 0.28324,0.84971 0.84971,0.84971 h 3.51214 v 18.97687 h -3.51214 c -0.56647,0 -0.84971,0.22659 -0.84971,0.84971 v 2.77572 c 0,0.56647 0.28324,0.84971 0.84971,0.84971 h 15.86126 c 0.56647,0 0.84971,-0.22659 0.84971,-0.84971 v -2.77572 c 0,-0.56648 -0.22659,-0.84971 -0.84971,-0.84971 h -6.00462 z"
         style="font-style:normal;font-variant:normal;font-weight:normal;font-stretch:normal;font-family:'Crete Round';-inkscape-font-specification:'Crete Round';fill:#000000;fill-opacity:1;stroke-width:1.41618371"
         id="path830" />
      <path
         d="m 185.30891,142.03172 c -0.16994,-0.56647 -0.50983,-0.79306 -1.0763,-0.79306 h -7.4208 c -0.56648,0 -0.84971,0.22659 -0.84971,0.84971 v 2.94566 c 0,0.56647 0.28323,0.84971 0.84971,0.84971 h 2.83237 l 8.61039,24.01848 -1.41618,3.73872 c -1.41618,3.79538 -2.37919,4.53179 -4.58844,4.53179 -1.69942,0 -2.94566,-0.39653 -4.47514,-0.90635 -0.56647,-0.16995 -0.90636,-0.0566 -1.0763,0.50982 l -0.963,2.77572 c -0.16994,0.56648 -0.16994,0.79306 0.39653,1.0763 1.0763,0.50983 3.68208,1.24624 6.28786,1.24624 6.2312,0 7.87398,-3.62543 9.68669,-8.27051 l 12.12254,-31.66587 c 0.33988,-0.84971 -0.1133,-1.69942 -1.01966,-1.69942 h -8.27051 c -0.56647,0 -0.84971,0.22659 -0.84971,0.84971 v 2.94566 c 0,0.56647 0.28324,0.84971 0.84971,0.84971 h 2.88902 l -5.89133,16.76762 z"
         style="font-style:normal;font-variant:normal;font-weight:normal;font-stretch:normal;font-family:'Crete Round';-inkscape-font-specification:'Crete Round';fill:#000000;fill-opacity:1;stroke-width:1.41618371"
         id="path832" />
    </g>
  </g>
</svg>
